<svg width="67" height="51" viewBox="0 0 67 51" fill="none" xmlns="http://www.w3.org/2000/svg">
<rect x="0.311279" y="39.0352" width="66.2109" height="11.963" rx="5.98148" fill="black"/>
<path d="M5.53949 46.0273H4.97949L3.71149 44.1113V46.0273H3.15149V43.2313H3.71149L4.97949 45.1513V43.2313H5.53949V46.0273ZM6.69289 43.6873V44.3873H7.63289V44.8313H6.69289V45.5713H7.75289V46.0273H6.13289V43.2313H7.75289V43.6873H6.69289ZM10.2018 43.2353V43.6873H9.4578V46.0273H8.8978V43.6873H8.1538V43.2353H10.2018ZM14.3824 43.2353L13.6024 46.0273H12.9424L12.4184 44.0393L11.8704 46.0273L11.2144 46.0313L10.4624 43.2353H11.0624L11.5544 45.4033L12.1224 43.2353H12.7464L13.2824 45.3913L13.7784 43.2353H14.3824ZM16.0841 46.0553C15.8227 46.0553 15.5827 45.994 15.3641 45.8713C15.1454 45.7487 14.9721 45.5793 14.8441 45.3633C14.7161 45.1447 14.6521 44.898 14.6521 44.6233C14.6521 44.3513 14.7161 44.1073 14.8441 43.8913C14.9721 43.6727 15.1454 43.502 15.3641 43.3793C15.5827 43.2567 15.8227 43.1953 16.0841 43.1953C16.3481 43.1953 16.5881 43.2567 16.8041 43.3793C17.0227 43.502 17.1947 43.6727 17.3201 43.8913C17.4481 44.1073 17.5121 44.3513 17.5121 44.6233C17.5121 44.898 17.4481 45.1447 17.3201 45.3633C17.1947 45.5793 17.0227 45.7487 16.8041 45.8713C16.5854 45.994 16.3454 46.0553 16.0841 46.0553ZM16.0841 45.5553C16.2521 45.5553 16.4001 45.518 16.5281 45.4433C16.6561 45.366 16.7561 45.2567 16.8281 45.1153C16.9001 44.974 16.9361 44.81 16.9361 44.6233C16.9361 44.4367 16.9001 44.274 16.8281 44.1353C16.7561 43.994 16.6561 43.886 16.5281 43.8113C16.4001 43.7367 16.2521 43.6993 16.0841 43.6993C15.9161 43.6993 15.7667 43.7367 15.6361 43.8113C15.5081 43.886 15.4081 43.994 15.3361 44.1353C15.2641 44.274 15.2281 44.4367 15.2281 44.6233C15.2281 44.81 15.2641 44.974 15.3361 45.1153C15.4081 45.2567 15.5081 45.366 15.6361 45.4433C15.7667 45.518 15.9161 45.5553 16.0841 45.5553ZM19.4087 46.0273L18.7927 44.9393H18.5287V46.0273H17.9687V43.2353H19.0167C19.2327 43.2353 19.4167 43.274 19.5687 43.3513C19.7207 43.426 19.834 43.5287 19.9087 43.6593C19.986 43.7873 20.0247 43.9313 20.0247 44.0913C20.0247 44.2753 19.9713 44.442 19.8647 44.5913C19.758 44.738 19.5993 44.8393 19.3887 44.8953L20.0567 46.0273H19.4087ZM18.5287 44.5193H18.9967C19.1487 44.5193 19.262 44.4833 19.3367 44.4113C19.4113 44.3367 19.4487 44.234 19.4487 44.1033C19.4487 43.9753 19.4113 43.8767 19.3367 43.8073C19.262 43.7353 19.1487 43.6993 18.9967 43.6993H18.5287V44.5193ZM22.1472 46.0273L21.1312 44.7833V46.0273H20.5712V43.2353H21.1312V44.4873L22.1472 43.2353H22.8232L21.6712 44.6193L22.8552 46.0273H22.1472ZM23.8235 43.2353V46.0273H23.2635V43.2353H23.8235ZM26.8048 46.0273H26.2448L24.9768 44.1113V46.0273H24.4168V43.2313H24.9768L26.2448 45.1513V43.2313H26.8048V46.0273ZM29.3422 44.0753C29.2782 43.958 29.1902 43.8687 29.0782 43.8073C28.9662 43.746 28.8355 43.7153 28.6862 43.7153C28.5209 43.7153 28.3742 43.7527 28.2462 43.8273C28.1182 43.902 28.0182 44.0087 27.9462 44.1473C27.8742 44.286 27.8382 44.446 27.8382 44.6273C27.8382 44.814 27.8742 44.9767 27.9462 45.1153C28.0209 45.254 28.1235 45.3607 28.2542 45.4353C28.3849 45.51 28.5369 45.5473 28.7102 45.5473C28.9235 45.5473 29.0982 45.4913 29.2342 45.3793C29.3702 45.2647 29.4595 45.106 29.5022 44.9033H28.5422V44.4753H30.0542V44.9633C30.0169 45.158 29.9369 45.338 29.8142 45.5033C29.6915 45.6687 29.5329 45.802 29.3382 45.9033C29.1462 46.002 28.9302 46.0513 28.6902 46.0513C28.4209 46.0513 28.1769 45.9913 27.9582 45.8713C27.7422 45.7487 27.5715 45.5793 27.4462 45.3633C27.3235 45.1473 27.2622 44.902 27.2622 44.6273C27.2622 44.3527 27.3235 44.1073 27.4462 43.8913C27.5715 43.6727 27.7422 43.5033 27.9582 43.3833C28.1769 43.2607 28.4195 43.1993 28.6862 43.1993C29.0009 43.1993 29.2742 43.2767 29.5062 43.4313C29.7382 43.5833 29.8982 43.798 29.9862 44.0753H29.3422ZM33.5376 44.0993C33.5376 44.2487 33.5016 44.3887 33.4296 44.5193C33.3603 44.65 33.2496 44.7553 33.0976 44.8353C32.9483 44.9153 32.759 44.9553 32.5296 44.9553H32.0616V46.0273H31.5016V43.2353H32.5296C32.7456 43.2353 32.9296 43.2727 33.0816 43.3473C33.2336 43.422 33.347 43.5247 33.4216 43.6553C33.499 43.786 33.5376 43.934 33.5376 44.0993ZM32.5056 44.5033C32.6603 44.5033 32.775 44.4687 32.8496 44.3993C32.9243 44.3273 32.9616 44.2273 32.9616 44.0993C32.9616 43.8273 32.8096 43.6913 32.5056 43.6913H32.0616V44.5033H32.5056ZM35.4152 46.0273L34.7992 44.9393H34.5352V46.0273H33.9752V43.2353H35.0232C35.2392 43.2353 35.4232 43.274 35.5752 43.3513C35.7272 43.426 35.8406 43.5287 35.9152 43.6593C35.9926 43.7873 36.0312 43.9313 36.0312 44.0913C36.0312 44.2753 35.9779 44.442 35.8712 44.5913C35.7646 44.738 35.6059 44.8393 35.3952 44.8953L36.0632 46.0273H35.4152ZM34.5352 44.5193H35.0032C35.1552 44.5193 35.2686 44.4833 35.3432 44.4113C35.4179 44.3367 35.4552 44.234 35.4552 44.1033C35.4552 43.9753 35.4179 43.8767 35.3432 43.8073C35.2686 43.7353 35.1552 43.6993 35.0032 43.6993H34.5352V44.5193ZM37.1377 43.2353V46.0273H36.5777V43.2353H37.1377ZM40.239 43.2353L39.215 46.0273H38.535L37.511 43.2353H38.111L38.879 45.4553L39.643 43.2353H40.239ZM42.3268 45.4953H41.2148L41.0308 46.0273H40.4428L41.4468 43.2313H42.0988L43.1028 46.0273H42.5108L42.3268 45.4953ZM42.1748 45.0473L41.7708 43.8793L41.3668 45.0473H42.1748ZM45.4181 43.2353V43.6873H44.6741V46.0273H44.1141V43.6873H43.3701V43.2353H45.4181ZM46.4266 43.6873V44.3873H47.3666V44.8313H46.4266V45.5713H47.4866V46.0273H45.8666V43.2313H47.4866V43.6873H46.4266ZM49.5887 45.5833H50.5087V46.0273H49.0287V43.2353H49.5887V45.5833ZM51.4646 43.2353V46.0273H50.9046V43.2353H51.4646ZM55.1019 43.2353V46.0273H54.5419V44.2113L53.7939 46.0273H53.3699L52.6179 44.2113V46.0273H52.0579V43.2353H52.6939L53.5819 45.3113L54.4699 43.2353H55.1019ZM56.2556 43.2353V46.0273H55.6956V43.2353H56.2556ZM58.7488 43.2353V43.6873H58.0048V46.0273H57.4448V43.6873H56.7008V43.2353H58.7488ZM59.7574 43.6873V44.3873H60.6974V44.8313H59.7574V45.5713H60.8174V46.0273H59.1974V43.2313H60.8174V43.6873H59.7574ZM62.3423 43.2353C62.6357 43.2353 62.893 43.2927 63.1143 43.4073C63.3383 43.522 63.5103 43.686 63.6303 43.8993C63.753 44.11 63.8143 44.3553 63.8143 44.6353C63.8143 44.9153 63.753 45.1607 63.6303 45.3713C63.5103 45.5793 63.3383 45.7407 63.1143 45.8553C62.893 45.97 62.6357 46.0273 62.3423 46.0273H61.3663V43.2353H62.3423ZM62.3223 45.5513C62.6157 45.5513 62.8423 45.4713 63.0023 45.3113C63.1623 45.1513 63.2423 44.926 63.2423 44.6353C63.2423 44.3447 63.1623 44.118 63.0023 43.9553C62.8423 43.79 62.6157 43.7073 62.3223 43.7073H61.9263V45.5513H62.3223Z" fill="white"/>
<path d="M16.3391 26.0931V24.3968H18.3096H20.2801H21.6181L21.6911 24.2502L21.9587 22.9728L22.8832 18.0934L24.2698 10.1357L25.2916 4.7956L25.8754 2.19886L26.4228 0L27.6392 10.3451L29.6948 27.9359L32.31 16.5647L34.5481 27.9359L37.1998 16.8788L39.2676 28.3757L42.2234 16.3762L44.0358 27.9359L45.7022 20.3761L46.1766 18.3657H50.4947V20.1876H46.8334L43.8168 33.4854L41.9923 21.8001L39.1095 33.4854L38.7567 31.5379L37.0538 22.0933L34.4386 33.0247L34.1467 31.5379L33.4412 27.8522L32.2249 21.6535L31.3612 25.3601L29.3542 34.1556L28.819 29.716L27.8338 21.1718L26.8485 12.5858L26.0822 6.09397L24.878 12.8162L23.5035 20.5017L22.7372 24.3968L22.3358 26.0931H16.3391Z" fill="black"/>
</svg>
