<svg width="65" height="64" viewBox="0 0 65 64" fill="none" xmlns="http://www.w3.org/2000/svg">
<rect x="0.311279" y="48.9883" width="64" height="15.0129" rx="7.50645" fill="black"/>
<path d="M4.43407 57.7422H3.87407L2.60607 55.8262V57.7422H2.04607V54.9462H2.60607L3.87407 56.8662V54.9462H4.43407V57.7422ZM5.58748 55.4022V56.1022H6.52748V56.5462H5.58748V57.2862H6.64748V57.7422H5.02748V54.9462H6.64748V55.4022H5.58748ZM9.09638 54.9502V55.4022H8.35238V57.7422H7.79238V55.4022H7.04838V54.9502H9.09638ZM13.277 54.9502L12.497 57.7422H11.837L11.313 55.7542L10.765 57.7422L10.109 57.7462L9.35698 54.9502H9.95698L10.449 57.1182L11.017 54.9502H11.641L12.177 57.1062L12.673 54.9502H13.277ZM14.9786 57.7702C14.7173 57.7702 14.4773 57.7089 14.2586 57.5862C14.04 57.4635 13.8666 57.2942 13.7386 57.0782C13.6106 56.8595 13.5466 56.6129 13.5466 56.3382C13.5466 56.0662 13.6106 55.8222 13.7386 55.6062C13.8666 55.3875 14.04 55.2169 14.2586 55.0942C14.4773 54.9715 14.7173 54.9102 14.9786 54.9102C15.2426 54.9102 15.4826 54.9715 15.6986 55.0942C15.9173 55.2169 16.0893 55.3875 16.2146 55.6062C16.3426 55.8222 16.4066 56.0662 16.4066 56.3382C16.4066 56.6129 16.3426 56.8595 16.2146 57.0782C16.0893 57.2942 15.9173 57.4635 15.6986 57.5862C15.48 57.7089 15.24 57.7702 14.9786 57.7702ZM14.9786 57.2702C15.1466 57.2702 15.2946 57.2329 15.4226 57.1582C15.5506 57.0809 15.6506 56.9715 15.7226 56.8302C15.7946 56.6889 15.8306 56.5249 15.8306 56.3382C15.8306 56.1515 15.7946 55.9889 15.7226 55.8502C15.6506 55.7089 15.5506 55.6009 15.4226 55.5262C15.2946 55.4515 15.1466 55.4142 14.9786 55.4142C14.8106 55.4142 14.6613 55.4515 14.5306 55.5262C14.4026 55.6009 14.3026 55.7089 14.2306 55.8502C14.1586 55.9889 14.1226 56.1515 14.1226 56.3382C14.1226 56.5249 14.1586 56.6889 14.2306 56.8302C14.3026 56.9715 14.4026 57.0809 14.5306 57.1582C14.6613 57.2329 14.8106 57.2702 14.9786 57.2702ZM18.3033 57.7422L17.6873 56.6542H17.4233V57.7422H16.8633V54.9502H17.9113C18.1273 54.9502 18.3113 54.9889 18.4633 55.0662C18.6153 55.1409 18.7286 55.2435 18.8033 55.3742C18.8806 55.5022 18.9193 55.6462 18.9193 55.8062C18.9193 55.9902 18.8659 56.1569 18.7593 56.3062C18.6526 56.4529 18.4939 56.5542 18.2833 56.6102L18.9513 57.7422H18.3033ZM17.4233 56.2342H17.8913C18.0433 56.2342 18.1566 56.1982 18.2313 56.1262C18.3059 56.0515 18.3433 55.9489 18.3433 55.8182C18.3433 55.6902 18.3059 55.5915 18.2313 55.5222C18.1566 55.4502 18.0433 55.4142 17.8913 55.4142H17.4233V56.2342ZM21.0418 57.7422L20.0258 56.4982V57.7422H19.4658V54.9502H20.0258V56.2022L21.0418 54.9502H21.7178L20.5658 56.3342L21.7498 57.7422H21.0418ZM22.7181 54.9502V57.7422H22.1581V54.9502H22.7181ZM25.6994 57.7422H25.1394L23.8714 55.8262V57.7422H23.3114V54.9462H23.8714L25.1394 56.8662V54.9462H25.6994V57.7422ZM28.2368 55.7902C28.1728 55.6729 28.0848 55.5835 27.9728 55.5222C27.8608 55.4609 27.7301 55.4302 27.5808 55.4302C27.4155 55.4302 27.2688 55.4675 27.1408 55.5422C27.0128 55.6169 26.9128 55.7235 26.8408 55.8622C26.7688 56.0009 26.7328 56.1609 26.7328 56.3422C26.7328 56.5289 26.7688 56.6915 26.8408 56.8302C26.9155 56.9689 27.0181 57.0755 27.1488 57.1502C27.2795 57.2249 27.4315 57.2622 27.6048 57.2622C27.8181 57.2622 27.9928 57.2062 28.1288 57.0942C28.2648 56.9795 28.3541 56.8209 28.3968 56.6182H27.4368V56.1902H28.9488V56.6782C28.9115 56.8729 28.8315 57.0529 28.7088 57.2182C28.5861 57.3835 28.4275 57.5169 28.2328 57.6182C28.0408 57.7169 27.8248 57.7662 27.5848 57.7662C27.3155 57.7662 27.0715 57.7062 26.8528 57.5862C26.6368 57.4635 26.4661 57.2942 26.3408 57.0782C26.2181 56.8622 26.1568 56.6169 26.1568 56.3422C26.1568 56.0675 26.2181 55.8222 26.3408 55.6062C26.4661 55.3875 26.6368 55.2182 26.8528 55.0982C27.0715 54.9755 27.3141 54.9142 27.5808 54.9142C27.8955 54.9142 28.1688 54.9915 28.4008 55.1462C28.6328 55.2982 28.7928 55.5129 28.8808 55.7902H28.2368ZM32.4322 55.8142C32.4322 55.9635 32.3962 56.1035 32.3242 56.2342C32.2549 56.3649 32.1442 56.4702 31.9922 56.5502C31.8429 56.6302 31.6536 56.6702 31.4242 56.6702H30.9562V57.7422H30.3962V54.9502H31.4242C31.6402 54.9502 31.8242 54.9875 31.9762 55.0622C32.1282 55.1369 32.2416 55.2395 32.3162 55.3702C32.3936 55.5009 32.4322 55.6489 32.4322 55.8142ZM31.4002 56.2182C31.5549 56.2182 31.6696 56.1835 31.7442 56.1142C31.8189 56.0422 31.8562 55.9422 31.8562 55.8142C31.8562 55.5422 31.7042 55.4062 31.4002 55.4062H30.9562V56.2182H31.4002ZM34.3098 57.7422L33.6938 56.6542H33.4298V57.7422H32.8698V54.9502H33.9178C34.1338 54.9502 34.3178 54.9889 34.4698 55.0662C34.6218 55.1409 34.7352 55.2435 34.8098 55.3742C34.8872 55.5022 34.9258 55.6462 34.9258 55.8062C34.9258 55.9902 34.8725 56.1569 34.7658 56.3062C34.6592 56.4529 34.5005 56.5542 34.2898 56.6102L34.9578 57.7422H34.3098ZM33.4298 56.2342H33.8978C34.0498 56.2342 34.1632 56.1982 34.2378 56.1262C34.3125 56.0515 34.3498 55.9489 34.3498 55.8182C34.3498 55.6902 34.3125 55.5915 34.2378 55.5222C34.1632 55.4502 34.0498 55.4142 33.8978 55.4142H33.4298V56.2342ZM36.0323 54.9502V57.7422H35.4723V54.9502H36.0323ZM39.1336 54.9502L38.1096 57.7422H37.4296L36.4056 54.9502H37.0056L37.7736 57.1702L38.5376 54.9502H39.1336ZM41.2213 57.2102H40.1093L39.9253 57.7422H39.3373L40.3413 54.9462H40.9933L41.9973 57.7422H41.4053L41.2213 57.2102ZM41.0693 56.7622L40.6653 55.5942L40.2613 56.7622H41.0693ZM44.3126 54.9502V55.4022H43.5686V57.7422H43.0086V55.4022H42.2646V54.9502H44.3126ZM45.3212 55.4022V56.1022H46.2612V56.5462H45.3212V57.2862H46.3812V57.7422H44.7612V54.9462H46.3812V55.4022H45.3212ZM48.4833 57.2982H49.4033V57.7422H47.9233V54.9502H48.4833V57.2982ZM50.3592 54.9502V57.7422H49.7992V54.9502H50.3592ZM53.9965 54.9502V57.7422H53.4365V55.9262L52.6885 57.7422H52.2645L51.5125 55.9262V57.7422H50.9525V54.9502H51.5885L52.4765 57.0262L53.3645 54.9502H53.9965ZM55.1501 54.9502V57.7422H54.5901V54.9502H55.1501ZM57.6434 54.9502V55.4022H56.8994V57.7422H56.3394V55.4022H55.5954V54.9502H57.6434ZM58.652 55.4022V56.1022H59.592V56.5462H58.652V57.2862H59.712V57.7422H58.092V54.9462H59.712V55.4022H58.652ZM61.2369 54.9502C61.5302 54.9502 61.7876 55.0075 62.0089 55.1222C62.2329 55.2369 62.4049 55.4009 62.5249 55.6142C62.6476 55.8249 62.7089 56.0702 62.7089 56.3502C62.7089 56.6302 62.6476 56.8755 62.5249 57.0862C62.4049 57.2942 62.2329 57.4555 62.0089 57.5702C61.7876 57.6849 61.5302 57.7422 61.2369 57.7422H60.2609V54.9502H61.2369ZM61.2169 57.2662C61.5102 57.2662 61.7369 57.1862 61.8969 57.0262C62.0569 56.8662 62.1369 56.6409 62.1369 56.3502C62.1369 56.0595 62.0569 55.8329 61.8969 55.6702C61.7369 55.5049 61.5102 55.4222 61.2169 55.4222H60.8209V57.2662H61.2169Z" fill="white"/>
<path d="M13.5022 28.7385V26.8702H15.6725H17.8428H19.3164L19.3968 26.7088L19.6915 25.3018L20.7097 19.9278L22.2369 11.1633L23.3623 5.28179L24.0053 2.42178L24.6082 0L25.9479 11.3939L28.2119 30.7681L31.0922 18.2441L33.5573 30.7681L36.4778 18.59L38.7552 31.2525L42.0107 18.0365L44.0068 30.7681L45.8422 22.4418L46.3646 20.2276H51.1205V22.2343H47.0881L43.7657 36.8803L41.7561 24.0102L38.5811 36.8803L38.1926 34.7353L36.317 24.3331L33.4367 36.3728L33.1152 34.7353L32.3382 30.6759L30.9985 23.8488L30.0473 27.9312L27.8368 37.6183L27.2474 32.7286L26.1622 23.3183L25.0771 13.8618L24.2331 6.71179L22.9068 14.1155L21.3929 22.5802L20.5489 26.8702L20.1068 28.7385H13.5022Z" fill="black"/>
</svg>
