<svg width="193" height="71" viewBox="0 0 193 71" fill="none" xmlns="http://www.w3.org/2000/svg">
<rect y="54.9248" width="192.906" height="16.0755" rx="8.03774" fill="black"/>
<path d="M42.2635 65.9434H41.3515L38.6075 61.7914V65.9434H37.6955V60.3754H38.6075L41.3515 64.5194V60.3754H42.2635V65.9434ZM44.4531 61.1194V62.7514H46.3731V63.4954H44.4531V65.1994H46.6131V65.9434H43.5411V60.3754H46.6131V61.1194H44.4531ZM51.4085 60.3834V61.1274H49.9284V65.9434H49.0164V61.1274H47.5284V60.3834H51.4085ZM59.6521 60.3834L58.0041 65.9434H56.9721L55.8041 61.7354L54.5641 65.9434L53.5401 65.9514L51.9641 60.3834H52.9321L54.0841 64.9114L55.3321 60.3834H56.3561L57.5161 64.8874L58.6761 60.3834H59.6521ZM63.0203 65.9994C62.5029 65.9994 62.0256 65.8794 61.5883 65.6394C61.1563 65.394 60.8123 65.0554 60.5563 64.6234C60.3056 64.186 60.1803 63.6954 60.1803 63.1514C60.1803 62.6074 60.3056 62.1194 60.5563 61.6874C60.8123 61.2554 61.1563 60.9194 61.5883 60.6794C62.0256 60.434 62.5029 60.3114 63.0203 60.3114C63.5429 60.3114 64.0203 60.434 64.4523 60.6794C64.8896 60.9194 65.2336 61.2554 65.4843 61.6874C65.7349 62.1194 65.8603 62.6074 65.8603 63.1514C65.8603 63.6954 65.7349 64.186 65.4843 64.6234C65.2336 65.0554 64.8896 65.394 64.4523 65.6394C64.0203 65.8794 63.5429 65.9994 63.0203 65.9994ZM63.0203 65.2074C63.3883 65.2074 63.7163 65.1247 64.0043 64.9594C64.2923 64.7887 64.5163 64.5487 64.6763 64.2394C64.8416 63.9247 64.9243 63.562 64.9243 63.1514C64.9243 62.7407 64.8416 62.3807 64.6763 62.0714C64.5163 61.762 64.2923 61.5247 64.0043 61.3594C63.7163 61.194 63.3883 61.1114 63.0203 61.1114C62.6523 61.1114 62.3243 61.194 62.0363 61.3594C61.7483 61.5247 61.5216 61.762 61.3563 62.0714C61.1963 62.3807 61.1163 62.7407 61.1163 63.1514C61.1163 63.562 61.1963 63.9247 61.3563 64.2394C61.5216 64.5487 61.7483 64.7887 62.0363 64.9594C62.3243 65.1247 62.6523 65.2074 63.0203 65.2074ZM69.7257 65.9434L68.4457 63.7194H67.7497V65.9434H66.8377V60.3834H68.7577C69.1844 60.3834 69.5444 60.458 69.8377 60.6074C70.1364 60.7567 70.3577 60.9567 70.5017 61.2074C70.651 61.458 70.7257 61.738 70.7257 62.0474C70.7257 62.41 70.619 62.7407 70.4057 63.0394C70.1977 63.3327 69.875 63.5327 69.4377 63.6394L70.8137 65.9434H69.7257ZM67.7497 62.9914H68.7577C69.099 62.9914 69.355 62.906 69.5257 62.7354C69.7017 62.5647 69.7897 62.3354 69.7897 62.0474C69.7897 61.7594 69.7044 61.5354 69.5337 61.3754C69.363 61.21 69.1044 61.1274 68.7577 61.1274H67.7497V62.9914ZM75.0364 65.9434L72.8844 63.4554V65.9434H71.9724V60.3834H72.8844V62.9194L75.0444 60.3834H76.1884L73.7724 63.1674L76.2284 65.9434H75.0364ZM78.0269 60.3834V65.9434H77.1149V60.3834H78.0269ZM83.8723 65.9434H82.9603L80.2163 61.7914V65.9434H79.3043V60.3754H80.2163L82.9603 64.5194V60.3754H83.8723V65.9434ZM89.1739 61.9834C89.0299 61.706 88.8299 61.498 88.5739 61.3594C88.3179 61.2154 88.0219 61.1434 87.6859 61.1434C87.3179 61.1434 86.9899 61.226 86.7019 61.3914C86.4139 61.5567 86.1872 61.7914 86.0219 62.0954C85.8619 62.3994 85.7819 62.7514 85.7819 63.1514C85.7819 63.5514 85.8619 63.906 86.0219 64.2154C86.1872 64.5194 86.4139 64.754 86.7019 64.9194C86.9899 65.0847 87.3179 65.1674 87.6859 65.1674C88.1819 65.1674 88.5846 65.0287 88.8939 64.7514C89.2032 64.474 89.3926 64.098 89.4619 63.6234H87.3739V62.8954H90.4379V63.6074C90.3792 64.0394 90.2246 64.4367 89.9739 64.7994C89.7286 65.162 89.4059 65.4527 89.0059 65.6714C88.6112 65.8847 88.1712 65.9914 87.6859 65.9914C87.1632 65.9914 86.6859 65.8714 86.2539 65.6314C85.8219 65.386 85.4779 65.0474 85.2219 64.6154C84.9712 64.1834 84.8459 63.6954 84.8459 63.1514C84.8459 62.6074 84.9712 62.1194 85.2219 61.6874C85.4779 61.2554 85.8219 60.9194 86.2539 60.6794C86.6912 60.434 87.1686 60.3114 87.6859 60.3114C88.2779 60.3114 88.8032 60.458 89.2619 60.7514C89.7259 61.0394 90.0619 61.45 90.2699 61.9834H89.1739ZM97.4635 62.0394C97.4635 62.322 97.3968 62.5887 97.2635 62.8394C97.1302 63.09 96.9168 63.2954 96.6235 63.4554C96.3302 63.61 95.9542 63.6874 95.4955 63.6874H94.4875V65.9434H93.5755V60.3834H95.4955C95.9222 60.3834 96.2822 60.458 96.5755 60.6074C96.8742 60.7514 97.0955 60.9487 97.2395 61.1994C97.3888 61.45 97.4635 61.73 97.4635 62.0394ZM95.4955 62.9434C95.8422 62.9434 96.1008 62.866 96.2715 62.7114C96.4422 62.5514 96.5275 62.3274 96.5275 62.0394C96.5275 61.4314 96.1835 61.1274 95.4955 61.1274H94.4875V62.9434H95.4955ZM101.301 65.9434L100.021 63.7194H99.3253V65.9434H98.4133V60.3834H100.333C100.76 60.3834 101.12 60.458 101.413 60.6074C101.712 60.7567 101.933 60.9567 102.077 61.2074C102.227 61.458 102.301 61.738 102.301 62.0474C102.301 62.41 102.195 62.7407 101.981 63.0394C101.773 63.3327 101.451 63.5327 101.013 63.6394L102.389 65.9434H101.301ZM99.3253 62.9914H100.333C100.675 62.9914 100.931 62.906 101.101 62.7354C101.277 62.5647 101.365 62.3354 101.365 62.0474C101.365 61.7594 101.28 61.5354 101.109 61.3754C100.939 61.21 100.68 61.1274 100.333 61.1274H99.3253V62.9914ZM104.46 60.3834V65.9434H103.548V60.3834H104.46ZM110.529 60.3834L108.441 65.9434H107.385L105.289 60.3834H106.265L107.913 65.0074L109.569 60.3834H110.529ZM114.724 64.8074H112.396L111.996 65.9434H111.044L113.036 60.3754H114.092L116.084 65.9434H115.124L114.724 64.8074ZM114.468 64.0634L113.564 61.4794L112.652 64.0634H114.468ZM120.622 60.3834V61.1274H119.142V65.9434H118.23V61.1274H116.742V60.3834H120.622ZM122.538 61.1194V62.7514H124.458V63.4954H122.538V65.1994H124.698V65.9434H121.626V60.3754H124.698V61.1194H122.538ZM128.971 65.2074H130.851V65.9434H128.059V60.3834H128.971V65.2074ZM132.606 60.3834V65.9434H131.694V60.3834H132.606ZM139.739 60.3834V65.9434H138.827V62.1354L137.131 65.9434H136.499L134.795 62.1354V65.9434H133.883V60.3834H134.867L136.819 64.7434L138.763 60.3834H139.739ZM141.93 60.3834V65.9434H141.018V60.3834H141.93ZM146.799 60.3834V61.1274H145.319V65.9434H144.407V61.1274H142.919V60.3834H146.799ZM148.715 61.1194V62.7514H150.635V63.4954H148.715V65.1994H150.875V65.9434H147.803V60.3754H150.875V61.1194H148.715ZM153.894 60.3834C154.486 60.3834 155.004 60.498 155.446 60.7274C155.894 60.9514 156.238 61.2767 156.478 61.7034C156.724 62.1247 156.846 62.618 156.846 63.1834C156.846 63.7487 156.724 64.2394 156.478 64.6554C156.238 65.0714 155.894 65.3914 155.446 65.6154C155.004 65.834 154.486 65.9434 153.894 65.9434H152.078V60.3834H153.894ZM153.894 65.1994C154.545 65.1994 155.044 65.0234 155.39 64.6714C155.737 64.3194 155.91 63.8234 155.91 63.1834C155.91 62.538 155.737 62.034 155.39 61.6714C155.044 61.3087 154.545 61.1274 153.894 61.1274H152.99V65.1994H153.894Z" fill="white"/>
<path d="M53.585 37.8659V35.4043H58.5313H63.4776H66.8362L67.0194 35.1916L67.6911 33.3378L70.0116 26.2569L73.4923 14.7087L76.057 6.9593L77.5226 3.19095L78.8966 0L81.9498 15.0126L87.1099 40.5402L93.6744 24.0385L99.2924 40.5402L105.949 24.4943L111.139 41.1784L118.559 23.765L123.108 40.5402L127.291 29.5694L128.482 26.652H139.321V29.2959H130.13L122.558 48.5936L117.978 31.636L110.742 48.5936L109.857 45.7673L105.582 32.0614L99.0176 47.925L98.2848 45.7673L96.514 40.4187L93.4607 31.4232L91.2929 36.8022L86.255 49.566L84.9115 43.1234L82.4384 30.7243L79.9652 18.2644L78.0417 8.84348L75.0189 18.5987L71.5687 29.7518L69.6452 35.4043L68.6376 37.8659H53.585Z" fill="black"/>
</svg>
